<svg xmlns="http://www.w3.org/2000/svg" viewBox="0 0 2153.27 2153.27"><defs><style>.cls-1{fill:#fff;}.cls-2{fill:none;}</style></defs><g id="图层_2" data-name="图层 2"><g id="图层_1-2" data-name="图层 1"><rect class="cls-1" width="2153.27" height="2153.27"/><path d="M1609.77,1572.42c-7,14.2-11.29,29.75-15.58,41.39,2.13,21,9.37,34.08,25.1,42.57,18.21,9.82,33,2.35,47.08-8.09,57.77-42.91,71-96.69,40-160.59-11.65-24-28-26.92-46.62-7C1635.25,1506.76,1625.2,1541.17,1609.77,1572.42Z"/><path d="M2068.67,1557.29c-18.11-5.83-32.42-4.54-40.41,12.78-10.22,22.14,7.38,25.79,23.06,31.79,79.54,30.41,92.36,79.56,38.44,148.56-65.47,83.77-146.79,144.59-241,197.13-179,99.83-398.51,21.18-533.21-123.1-215.8-359.66-114.63-734.21-76.31-845.85,23.5-62.87,48.55-125.24,74.65-187.27,17.31-41.13,43.94-67.66,82.84-87.32,61.88-31.27,116.12-75.24,164.45-123.59,70.32-70.36,127.46-149,115.4-259.12-6-54.53-30.19-93-78.37-114.68-48.59-21.84-87.16,3.1-121.49,35.15-15.85,14.8-28.93,32.17-42.11,49.68-100.73,133.8-170.84,284.37-240.7,435.14-7.66,16.54-16.9,31.11-35.63,37-40.24,12.66-79.89,27.67-120.76,37.72-38.87,9.57-46.73-.7-36.82-39.68,12.21-48,40.12-91.4,38.26-143.79-.58-16.38-5.51-34.82,5-51.1,38.46-59.87-.91-98.75-38.42-137-20.61-21-68.18-31.51-100-28.74-86.87,7.57-165.37-13.62-228.69-75.88-20-19.68-47.32-48.06-34.93-73.68,20.71-42.82,46.17-87.23,95.56-107.12,22-8.88,36.41-2.09,45.23,20.08,3.64,9.13-5.8,30.73,16,24.51,17.67-5,9.89-22.5,8.55-35.46-2.18-21-14.84-35.09-32.25-44.53-44-23.86-80.11-16.36-129.11,27-37.32,33-66.48,69.23-45.69,124.41,40.82,108.36,170.19,197.31,293,186,25.21-2.32,29.15,5.17,25.53,25.79-12.92,73.47-20.4,147.94-43.53,219.51C861.83,733,852,775.54,839.33,817.19c-6.94,22.87-22.08,36.86-48,36.69-16.49-.12-27.31-8.19-28.37-23.36-5.5-78.47-69.7-122.35-106.33-182.36-8.89-14.58-25.68-17.91-41.83-22.82-55.18-16.75-123.06,26.06-170,110.83A240.53,240.53,0,0,1,521,675c55.46-28.71,115.56-26,129.08,51.31,17.89,102.25-7.68,160.75-88,177.84C454.49,927.06,354.17,967.53,262.37,1027c-86.77,56.22-171.71,114.81-233.3,201.66-55.86,78.77-29.54,186,64.58,221.36,34.31,12.9,69.33,25.37,106.23,25.61,33.66.23,51.54,13.91,62,46.15,22.1,67.87,81.13,100.36,149.79,88.35,57.9-10.13,116.88-21.93,167.4-55.47,22.76-15.11,53-15.11,72.13-35.79,97.56-105.43,161.27-229.73,210-364.14,32.43-89.43,72.73-176,98.3-268.08,5.27-19,11.73-39.59,37-44.29,38.88-7.23,76.17-20.1,112.84-34.8,14.17-5.68,31.11-12.11,42.58-1.06,12.87,12.4-.46,28.25-4.78,41.52-48,147.47-98.92,294-121.59,448.46-8.55,58.17-13.45,116-11,173.6l-.28-.62s-.66,208.71,118.82,333.36c1.88,2,3.52,3.61,5.28,5.41,65.57,86.23,167,181.16,306.52,203.28h0c116.6,51.77,246.63,65.44,389.67,13,148.71-54.49,255.82-155.39,311.4-305.41C2170.37,1653.28,2130.83,1577.26,2068.67,1557.29ZM1381.54,639.34c27.51-61.86,54.77-123.87,83.83-185,17.66-37.13,27.68-76.75,37.09-115.91,6.45-26.89,19.89-47.52,36-67,16.7-20.22,38.61-36.31,67.38-27.21,26.54,8.4,42.66,28.3,48,55.7,2.32,11.79,2.38,24,4.42,46.57,2.64,54.76-28.54,107.29-64.48,157.28-49.28,68.56-116.5,117-187.57,160.31-7.87,4.8-18.42,17.62-28.38,6C1370.16,661.18,1377.27,649,1381.54,639.34ZM236.8,1376.7c-.8,19-11,27.21-26.76,30.22-17.25,3.29-34.95,4.24-50.27,6-42.35-4.52-89,1.43-109.56-42.93-19.38-41.83,4.61-80,28.38-113,47-65.45,110.5-113.92,175.29-160.49,6.68-4.8,14.17-10.85,22.17-6.4,9,5,4.8,14.43,2.82,21.94C256,1198.82,240.56,1286.89,236.8,1376.7ZM263.44,1333c7.65-67.69,13.73-133.55,24-199.28,8.24-52.89,35-81.41,80.94-100.76,64.49-27.16,124.89-63.85,193.51-81.55,14.65-3.78,31.53-10.93,42.29-1.44,12.87,11.33,3,27.22-3.89,41-52.9,106.69-96.33,219-188.73,301.32-28.64,25.52-60.33,46.1-91.16,68.22-14.3,10.27-31.38,25.91-47,18.94C254.76,1371.12,268.64,1347.59,263.44,1333ZM802.18,922.46q-21.23,65.73-44.4,130.83c-44.43,125.59-84.24,253.41-161.33,364.37-50.34,72.47-108.23,136.74-198.21,160.85-7.82,2.09-15.8,3.58-21.53,4.86-34.4-3.89-63.83-13.51-85.08-39.26-31.52-38.16-22.86-71.76,24.52-75.3,96.57-7.22,160.37-66.14,223.94-128.12,117-114.07,190.41-252.32,228.38-410.34,1.58-6.56,2.85-13.41,5.77-19.4,4.67-9.57,14.62-14.5,23.73-12.16C812.54,902.54,804.61,914.94,802.18,922.46Z"/><rect class="cls-2" x="-977.89" y="977.89" width="2153.27" height="197.49" transform="translate(1175.38 977.89) rotate(90)"/></g></g></svg>